# xmcd
#
# Track frame offsets:
#	150
#	26275
#	66790
#	85057
#	128052
#	148770
#	188807
#	207462
#	227967
#	243185
# Disc length: 3470 seconds
# Revision: 1
# Processed by: cddbd v1.5.2PL0 Copyright (c) Steve Scherf et al.
#
# Submitted via: libkcddb 0.31
#
DISCID=860d8c0a
DTITLE=Darius Milhaud - Symphonie No. 3 Op. 271 "Te Deum" - Concerto pour 2 pianos Op. 228 - Divertissement  Op. 299b
DYEAR=1961
DGENRE=Symphonique
TTITLE0=Symphonie No. 3 Op. 271 "Te Deum" (1946) - Fièrement
TTITLE1=Symphonie No. 3 Op. 271 "Te Deum" (1946) - Très recueilli
TTITLE2=Symphonie No. 3 Op. 271 "Te Deum" (1946) - Pastorale
TTITLE3=Symphonie No. 3 Op. 271 "Te Deum" (1946) - Hymnus ambrosianus - Te Deum
TTITLE4=Concerto pour 2 pianos Op. 228 (1941) - Animé
TTITLE5=Concerto pour 2 pianos Op. 228 (1941) - Funèbre
TTITLE6=Concerto pour 2 pianos Op. 228 (1941) - Vif et précis
TTITLE7=Divertissement  Op. 299b (1958) - Balancé
TTITLE8=Divertissement  Op. 299b (1958) - Dramatique
TTITLE9=Divertissement  Op. 299b (1958) - Joyeux
EXTD=
EXTT0=
EXTT1=
EXTT2=
EXTT3=
EXTT4=
EXTT5=
EXTT6=
EXTT7=
EXTT8=
EXTT9=
PLAYORDER=
